<svg width="115" height="20" viewBox="0 0 115 20" fill="none" xmlns="http://www.w3.org/2000/svg">
<g clip-path="url(#clip0_1115_39)">
<path d="M0 0.258179V1.66794L12.958 1.54917V0.258179H0Z" fill="url(#paint0_linear_1115_39)"/>
<path d="M0 9.29517V10.7049L12.958 10.5862V9.29517H0Z" fill="url(#paint1_linear_1115_39)"/>
<path d="M0 18.5902V20L12.958 19.8812V18.5902H0Z" fill="url(#paint2_linear_1115_39)"/>
<path d="M42.2432 0V1.40976L55.2012 1.29099V0H42.2432Z" fill="url(#paint3_linear_1115_39)"/>
<path d="M42.2432 9.03687V10.4466L55.2012 10.3279V9.03687H42.2432Z" fill="url(#paint4_linear_1115_39)"/>
<path d="M42.2432 18.332V19.7418L55.2012 19.623V18.332H42.2432Z" fill="url(#paint5_linear_1115_39)"/>
<path d="M17.4829 0.258179H19.1364L26.8231 17.9447L35.0488 0.258179H36.5727L27.7042 20H26.3488L17.4829 0.258179Z" fill="url(#paint6_linear_1115_39)"/>
<path d="M64.0646 20H62.6755V0.258179H64.0646L77.3596 17.6865V0.258179H78.6217V20H77.3648L64.1424 3.22745L64.0646 20Z" fill="url(#paint7_linear_1115_39)"/>
<path d="M84.2454 0.258179H99.9298V1.58015H92.8158V20H91.393V1.42007H84.2454V0.258179Z" fill="url(#paint8_linear_1115_39)"/>
<path d="M109.809 4.26025H108.459V15.9514H109.809V4.26025Z" fill="url(#paint9_linear_1115_39)"/>
<path d="M115.003 9.43201H103.268V10.7772H115.003V9.43201Z" fill="url(#paint10_linear_1115_39)"/>
</g>
<defs>
<linearGradient id="paint0_linear_1115_39" x1="0" y1="0.963059" x2="12.958" y2="0.963059" gradientUnits="userSpaceOnUse">
<stop stop-color="#B51D44"/>
<stop offset="0.99" stop-color="#821B47"/>
</linearGradient>
<linearGradient id="paint1_linear_1115_39" x1="0" y1="10" x2="0.259161" y2="10" gradientUnits="userSpaceOnUse">
<stop stop-color="#B51D44"/>
<stop offset="0.99" stop-color="#821B47"/>
</linearGradient>
<linearGradient id="paint2_linear_1115_39" x1="0" y1="19.2951" x2="0.259161" y2="19.2951" gradientUnits="userSpaceOnUse">
<stop stop-color="#B51D44"/>
<stop offset="0.99" stop-color="#821B47"/>
</linearGradient>
<linearGradient id="paint3_linear_1115_39" x1="42.2432" y1="0.70488" x2="55.2012" y2="0.70488" gradientUnits="userSpaceOnUse">
<stop stop-color="#B51D44"/>
<stop offset="0.99" stop-color="#821B47"/>
</linearGradient>
<linearGradient id="paint4_linear_1115_39" x1="42.2432" y1="9.74174" x2="55.2012" y2="9.74174" gradientUnits="userSpaceOnUse">
<stop stop-color="#B51D44"/>
<stop offset="0.99" stop-color="#821B47"/>
</linearGradient>
<linearGradient id="paint5_linear_1115_39" x1="42.2432" y1="19.0369" x2="55.2012" y2="19.0369" gradientUnits="userSpaceOnUse">
<stop stop-color="#B51D44"/>
<stop offset="0.99" stop-color="#821B47"/>
</linearGradient>
<linearGradient id="paint6_linear_1115_39" x1="17.4829" y1="10.1291" x2="36.5727" y2="10.1291" gradientUnits="userSpaceOnUse">
<stop stop-color="#B51D44"/>
<stop offset="0.99" stop-color="#821B47"/>
</linearGradient>
<linearGradient id="paint7_linear_1115_39" x1="62.6755" y1="10.1291" x2="78.6217" y2="10.1291" gradientUnits="userSpaceOnUse">
<stop stop-color="#B51D44"/>
<stop offset="0.99" stop-color="#821B47"/>
</linearGradient>
<linearGradient id="paint8_linear_1115_39" x1="84.2454" y1="10.1291" x2="99.9298" y2="10.1291" gradientUnits="userSpaceOnUse">
<stop stop-color="#B51D44"/>
<stop offset="0.99" stop-color="#821B47"/>
</linearGradient>
<linearGradient id="paint9_linear_1115_39" x1="108.459" y1="10.1059" x2="109.809" y2="10.1059" gradientUnits="userSpaceOnUse">
<stop stop-color="#B51D44"/>
<stop offset="0.99" stop-color="#821B47"/>
</linearGradient>
<linearGradient id="paint10_linear_1115_39" x1="103.268" y1="10.1059" x2="115" y2="10.1059" gradientUnits="userSpaceOnUse">
<stop stop-color="#B51D44"/>
<stop offset="0.99" stop-color="#821B47"/>
</linearGradient>
<clipPath id="clip0_1115_39">
<rect width="115" height="20" fill="white"/>
</clipPath>
</defs>
</svg>
